<svg width="689" height="835" viewBox="0 0 689 835" fill="none" xmlns="http://www.w3.org/2000/svg">
<g filter="url(#filter0_d_13_251)">
<circle cx="322" cy="408.287" r="254" stroke="#00BBA6" stroke-width="18" stroke-linecap="round" stroke-dasharray="160 70" shape-rendering="crispEdges"/>
</g>
<g filter="url(#filter1_d_13_251)">
<path d="M380.559 118.213L255.251 300.217C239.063 323.945 202.214 379.899 184.33 413.897C166.445 447.895 185.101 451.082 199.748 451.082H268.357C296.881 451.082 291.546 465.785 283.149 488.928L283.003 489.329C270.669 539.263 244.612 623.858 238.292 651.881C220.562 730.5 246.772 713.501 270.669 677.379C329.771 577.865 450.903 373.1 462.62 350.151C474.338 327.203 459.794 322.174 451.057 322.528C432.556 321.466 392.007 319.978 377.823 322.528C363.638 325.078 365.745 308.717 368.572 300.217C380.392 259.845 405.112 170.601 409.429 136.603C413.068 107.949 399.803 106.464 389.39 110.522C385.673 111.97 382.822 114.927 380.559 118.213Z" fill="url(#paint0_linear_13_251)"/>
</g>
<defs>
<filter id="filter0_d_13_251" x="55" y="145.287" width="534" height="534" filterUnits="userSpaceOnUse" color-interpolation-filters="sRGB">
<feFlood flood-opacity="0" result="BackgroundImageFix"/>
<feColorMatrix in="SourceAlpha" type="matrix" values="0 0 0 0 0 0 0 0 0 0 0 0 0 0 0 0 0 0 127 0" result="hardAlpha"/>
<feOffset dy="4"/>
<feGaussianBlur stdDeviation="2"/>
<feComposite in2="hardAlpha" operator="out"/>
<feColorMatrix type="matrix" values="0 0 0 0 0 0 0 0 0 0 0 0 0 0 0 0 0 0 0.25 0"/>
<feBlend mode="normal" in2="BackgroundImageFix" result="effect1_dropShadow_13_251"/>
<feBlend mode="normal" in="SourceGraphic" in2="effect1_dropShadow_13_251" result="shape"/>
</filter>
<filter id="filter1_d_13_251" x="68.1443" y="2.86102e-06" width="525.772" height="834.634" filterUnits="userSpaceOnUse" color-interpolation-filters="sRGB">
<feFlood flood-opacity="0" result="BackgroundImageFix"/>
<feColorMatrix in="SourceAlpha" type="matrix" values="0 0 0 0 0 0 0 0 0 0 0 0 0 0 0 0 0 0 127 0" result="hardAlpha"/>
<feOffset dx="9.03052" dy="9.03052"/>
<feGaussianBlur stdDeviation="58.9431"/>
<feComposite in2="hardAlpha" operator="out"/>
<feColorMatrix type="matrix" values="0 0 0 0 0.730093 0 0 0 0 1 0 0 0 0 0.969279 0 0 0 1 0"/>
<feBlend mode="normal" in2="BackgroundImageFix" result="effect1_dropShadow_13_251"/>
<feBlend mode="normal" in="SourceGraphic" in2="effect1_dropShadow_13_251" result="shape"/>
</filter>
<linearGradient id="paint0_linear_13_251" x1="636.586" y1="266.929" x2="25.3405" y2="478.56" gradientUnits="userSpaceOnUse">
<stop offset="0.114913" stop-color="white"/>
<stop offset="0.950156" stop-color="#04FFE2"/>
</linearGradient>
</defs>
</svg>
